<svg version="1.1" xmlns="http://www.w3.org/2000/svg" xmlns:xlink="http://www.w3.org/1999/xlink" width="708" height="315"><defs/><g><g transform="translate(-78,-134) scale(1,1)"><rect fill="#C0C0C0" stroke="none" x="191" y="151" width="592" height="295" opacity="0.2"/></g><g transform="translate(-78,-134) scale(1,1)"><rect fill="#ffffff" stroke="none" x="184" y="144" width="592" height="295"/></g><g transform="translate(-78,-134) scale(1,1)"><path fill="none" stroke="#000000" d="M 184 144 L 776 144 L 776 439 L 184 439 L 184 144 Z Z" stroke-miterlimit="10"/></g><g transform="translate(-78,-134) scale(1,1)"><g><path fill="none" stroke="none"/><text fill="#000000" stroke="none" font-family="Arial" font-size="13px" font-style="normal" font-weight="bold" text-decoration="none" x="465.911376953125" y="163.5">sipre</text></g></g><g transform="translate(-78,-134) scale(1,1)"><path fill="#ffffff" stroke="none" d="M 115.60661594460228 273.68 C 115.60661594460228 268.886167936 119.49245826954774 265 124.285888671875 265 C 129.07931907420226 265 132.96516139914772 268.886167936 132.96516139914772 273.68 C 132.96516139914772 278.473832064 129.07931907420226 282.36 124.285888671875 282.36 C 119.49245826954774 282.36 115.60661594460228 278.473832064 115.60661594460228 273.68 Z"/></g><g transform="translate(-78,-134) scale(1,1)"><path fill="none" stroke="#000000" d="M 115.60661594460228 273.68 C 115.60661594460228 268.886167936 119.49245826954774 265 124.285888671875 265 C 129.07931907420226 265 132.96516139914772 268.886167936 132.96516139914772 273.68 C 132.96516139914772 278.473832064 129.07931907420226 282.36 124.285888671875 282.36 C 119.49245826954774 282.36 115.60661594460228 278.473832064 115.60661594460228 273.68 Z" stroke-miterlimit="10"/></g><g transform="translate(-78,-134) scale(1,1)"><path fill="none" stroke="#000000" d="M 124.285888671875 282.36 L 124.285888671875 299.64" stroke-miterlimit="10"/></g><g transform="translate(-78,-134) scale(1,1)"><path fill="none" stroke="#000000" d="M 115.09607049005683 288.84 L 133.47570685369317 288.84" stroke-miterlimit="10"/></g><g transform="translate(-78,-134) scale(1,1)"><path fill="none" stroke="#000000" d="M 124.285888671875 299.64 L 111.52225230823865 317" stroke-miterlimit="10"/></g><g transform="translate(-78,-134) scale(1,1)"><path fill="none" stroke="#000000" d="M 124.285888671875 299.64 L 137.04952503551135 317" stroke-miterlimit="10"/></g><g transform="translate(-78,-134) scale(1,1)"><g><path fill="none" stroke="none"/><text fill="#000000" stroke="none" font-family="Arial" font-size="13px" font-style="normal" font-weight="bold" text-decoration="none" x="95.016845703125" y="337.5">proveedor</text></g></g><g transform="translate(-78,-134) scale(1,1)"><path fill="#C0C0C0" stroke="none" d="M 279 304 C 279 294.6111584 315.2649312 287 360 287 C 404.7350688 287 441 294.6111584 441 304 C 441 313.3888416 404.7350688 321 360 321 C 315.2649312 321 279 313.3888416 279 304 Z" opacity="0.2"/></g><g transform="translate(-78,-134) scale(1,1)"><path fill="#ffffff" stroke="none" d="M 272 297 C 272 287.6111584 308.2649312 280 353 280 C 397.7350688 280 434 287.6111584 434 297 C 434 306.3888416 397.7350688 314 353 314 C 308.2649312 314 272 306.3888416 272 297 Z"/></g><g transform="translate(-78,-134) scale(1,1)"><path fill="none" stroke="#000000" d="M 272 297 C 272 287.6111584 308.2649312 280 353 280 C 397.7350688 280 434 287.6111584 434 297 C 434 306.3888416 397.7350688 314 353 314 C 308.2649312 314 272 306.3888416 272 297 Z" stroke-miterlimit="10"/></g><g transform="translate(-78,-134) scale(1,1)"><g><path fill="none" stroke="none"/><text fill="#000000" stroke="none" font-family="Arial" font-size="13px" font-style="normal" font-weight="bold" text-decoration="none" x="303.504150390625" y="304">Generar reportes</text></g></g><g transform="translate(-78,-134) scale(1,1)"><path fill="none" stroke="#000000" d="M 162 302 L 271 299" stroke-miterlimit="10"/></g><g transform="translate(-78,-134) scale(1,1)"><path fill="#C0C0C0" stroke="none" d="M 199 216 C 199 206.6111584 266.60499519999996 199 350 199 C 433.39500480000004 199 501 206.6111584 501 216 C 501 225.3888416 433.39500480000004 233 350 233 C 266.60499519999996 233 199 225.3888416 199 216 Z" opacity="0.2"/></g><g transform="translate(-78,-134) scale(1,1)"><path fill="#ffffff" stroke="none" d="M 192 209 C 192 199.6111584 259.60499519999996 192 343 192 C 426.39500480000004 192 494 199.6111584 494 209 C 494 218.3888416 426.39500480000004 226 343 226 C 259.60499519999996 226 192 218.3888416 192 209 Z"/></g><g transform="translate(-78,-134) scale(1,1)"><path fill="none" stroke="#000000" d="M 192 209 C 192 199.6111584 259.60499519999996 192 343 192 C 426.39500480000004 192 494 199.6111584 494 209 C 494 218.3888416 426.39500480000004 226 343 226 C 259.60499519999996 226 192 218.3888416 192 209 Z" stroke-miterlimit="10"/></g><g transform="translate(-78,-134) scale(1,1)"><g><path fill="none" stroke="none"/><text fill="#000000" stroke="none" font-family="Arial" font-size="13px" font-style="normal" font-weight="bold" text-decoration="none" x="247.96923828125" y="216">Consultar agendamiento de citas</text></g></g><g transform="translate(-78,-134) scale(1,1)"><path fill="#C0C0C0" stroke="none" d="M 511 256 C 511 246.6111584 571.8892672 239 647 239 C 722.1107328 239 783 246.6111584 783 256 C 783 265.3888416 722.1107328 273 647 273 C 571.8892672 273 511 265.3888416 511 256 Z" opacity="0.2"/></g><g transform="translate(-78,-134) scale(1,1)"><path fill="#ffffff" stroke="none" d="M 504 249 C 504 239.6111584 564.8892672 232 640 232 C 715.1107328 232 776 239.6111584 776 249 C 776 258.3888416 715.1107328 266 640 266 C 564.8892672 266 504 258.3888416 504 249 Z"/></g><g transform="translate(-78,-134) scale(1,1)"><path fill="none" stroke="#000000" d="M 504 249 C 504 239.6111584 564.8892672 232 640 232 C 715.1107328 232 776 239.6111584 776 249 C 776 258.3888416 715.1107328 266 640 266 C 564.8892672 266 504 258.3888416 504 249 Z" stroke-miterlimit="10"/></g><g transform="translate(-78,-134) scale(1,1)"><g><path fill="none" stroke="none"/><text fill="#000000" stroke="none" font-family="Arial" font-size="13px" font-style="normal" font-weight="bold" text-decoration="none" x="554.00830078125" y="256">Generar reporte de asistencia</text></g></g><g transform="translate(-78,-134) scale(1,1)"><path fill="#C0C0C0" stroke="none" d="M 463 408 C 463 398.6111584 527.6948464 391 607.5 391 C 687.3051536 391 752 398.6111584 752 408 C 752 417.3888416 687.3051536 425 607.5 425 C 527.6948464 425 463 417.3888416 463 408 Z" opacity="0.2"/></g><g transform="translate(-78,-134) scale(1,1)"><path fill="#ffffff" stroke="none" d="M 456 401 C 456 391.6111584 520.6948464 384 600.5 384 C 680.3051536 384 745 391.6111584 745 401 C 745 410.3888416 680.3051536 418 600.5 418 C 520.6948464 418 456 410.3888416 456 401 Z"/></g><g transform="translate(-78,-134) scale(1,1)"><path fill="none" stroke="#000000" d="M 456 401 C 456 391.6111584 520.6948464 384 600.5 384 C 680.3051536 384 745 391.6111584 745 401 C 745 410.3888416 680.3051536 418 600.5 418 C 520.6948464 418 456 410.3888416 456 401 Z" stroke-miterlimit="10"/></g><g transform="translate(-78,-134) scale(1,1)"><g><path fill="none" stroke="none"/><text fill="#000000" stroke="none" font-family="Arial" font-size="13px" font-style="normal" font-weight="bold" text-decoration="none" x="509.44921875" y="408">Generar reporte de inasistencia</text></g></g><g transform="translate(-78,-134) scale(1,1)"><path fill="none" stroke="#000000" d="M 345 227 L 351 279" stroke-miterlimit="10" stroke-dasharray="3"/></g><g transform="translate(-78,-134) scale(1,1)"><path fill="none" stroke="#000000" d="M 345.65333990516746 269.3868202019142 L 351 279 L 354.0168850142364 268.4217957662524" stroke-miterlimit="10"/></g><g transform="translate(-78,-134) scale(1,1)"><g><path fill="none" stroke="none"/><text fill="#000000" stroke="none" font-family="Arial" font-size="13px" font-style="normal" font-weight="normal" text-decoration="none" x="350" y="256">«include»</text></g></g><g transform="translate(-78,-134) scale(1,1)"><path fill="none" stroke="#000000" d="M 435 283 L 532 267" stroke-miterlimit="10" stroke-dasharray="3"/></g><g transform="translate(-78,-134) scale(1,1)"><path fill="none" stroke="#000000" d="M 522.6579153703536 272.8073621182534 L 532 267 L 521.2877234733355 264.5005737425813" stroke-miterlimit="10"/></g><g transform="translate(-78,-134) scale(1,1)"><g><path fill="none" stroke="none"/><text fill="#000000" stroke="none" font-family="Arial" font-size="13px" font-style="normal" font-weight="normal" text-decoration="none" x="452" y="252">«extend»</text></g></g><g transform="translate(-78,-134) scale(1,1)"><path fill="none" stroke="#000000" d="M 396 315 L 557 383" stroke-miterlimit="10" stroke-dasharray="3"/></g><g transform="translate(-78,-134) scale(1,1)"><path fill="none" stroke="#000000" d="M 546.000264406536 382.9237315669478 L 557 383 L 549.2759422968043 375.16808244440085" stroke-miterlimit="10"/></g><g transform="translate(-78,-134) scale(1,1)"><g><path fill="none" stroke="none"/><text fill="#000000" stroke="none" font-family="Arial" font-size="13px" font-style="normal" font-weight="normal" text-decoration="none" x="461" y="328">«extend»</text></g></g></g></svg>